<mxfile host="app.diagrams.net" modified="2024-05-09T09:30:01.728Z" agent="Mozilla/5.0 (Windows NT 10.0; Win64; x64) AppleWebKit/537.36 (KHTML, like Gecko) Chrome/124.0.0.0 Safari/537.36" etag="xFz7DObeUHrJe8605Xe0" version="24.3.1" type="device">
  <diagram name="Page-1" id="ELjl9gByCZCh_97ISyAW">
    <mxGraphModel dx="2924" dy="4398" grid="1" gridSize="10" guides="1" tooltips="1" connect="1" arrows="1" fold="1" page="1" pageScale="1" pageWidth="850" pageHeight="1100" math="1" shadow="0">
      <root>
        <mxCell id="0" />
        <mxCell id="1" parent="0" />
        <mxCell id="jB6_mRZn_5eLLBD233gM-273" value="" style="rounded=0;whiteSpace=wrap;html=1;movable=1;resizable=1;rotatable=1;deletable=1;editable=1;locked=0;connectable=1;" vertex="1" parent="1">
          <mxGeometry x="-160" y="-2410" width="550" height="200" as="geometry" />
        </mxCell>
        <mxCell id="jB6_mRZn_5eLLBD233gM-274" value="" style="shape=cube;whiteSpace=wrap;html=1;boundedLbl=1;backgroundOutline=1;darkOpacity=0.05;darkOpacity2=0.1;size=40;direction=east;flipH=1;fillColor=#f9f7ed;strokeColor=#36393d;opacity=40;" vertex="1" parent="1">
          <mxGeometry x="-142.70000000000002" y="-2399.75" width="62" height="159.75" as="geometry" />
        </mxCell>
        <mxCell id="jB6_mRZn_5eLLBD233gM-275" value="" style="rounded=0;whiteSpace=wrap;html=1;movable=1;resizable=1;rotatable=1;deletable=1;editable=1;locked=0;connectable=1;" vertex="1" parent="1">
          <mxGeometry x="-160" y="-2140" width="550" height="160" as="geometry" />
        </mxCell>
        <mxCell id="jB6_mRZn_5eLLBD233gM-276" style="edgeStyle=orthogonalEdgeStyle;rounded=0;orthogonalLoop=1;jettySize=auto;html=1;exitX=0.5;exitY=1;exitDx=0;exitDy=0;fontFamily=Helvetica;fontSize=12;fontColor=default;resizable=1;" edge="1" parent="1" source="jB6_mRZn_5eLLBD233gM-275" target="jB6_mRZn_5eLLBD233gM-275">
          <mxGeometry relative="1" as="geometry" />
        </mxCell>
        <mxCell id="jB6_mRZn_5eLLBD233gM-277" value="&lt;font style=&quot;font-size: 23px;&quot; face=&quot;Times New Roman&quot;&gt;Feature Extractor Network&lt;/font&gt;" style="shape=cube;whiteSpace=wrap;html=1;boundedLbl=1;backgroundOutline=1;darkOpacity=0.05;darkOpacity2=0.1;size=40;direction=east;flipH=1;fillColor=#b1ddf0;strokeColor=#000000;" vertex="1" parent="1">
          <mxGeometry x="-500" y="-2200" width="250" height="159.75" as="geometry" />
        </mxCell>
        <mxCell id="jB6_mRZn_5eLLBD233gM-278" value="" style="shape=cube;whiteSpace=wrap;html=1;boundedLbl=1;backgroundOutline=1;darkOpacity=0.05;darkOpacity2=0.1;size=40;direction=east;flipH=1;fillColor=#f5f5f5;strokeColor=#666666;fontColor=#333333;" vertex="1" parent="1">
          <mxGeometry x="-620" y="-2200" width="62" height="159.75" as="geometry" />
        </mxCell>
        <mxCell id="jB6_mRZn_5eLLBD233gM-279" value="$$48 \times 48 \times 16$$" style="text;html=1;strokeColor=none;fillColor=none;align=center;verticalAlign=middle;whiteSpace=wrap;rounded=0;fontStyle=1" vertex="1" parent="1">
          <mxGeometry x="-656.9999999999999" y="-2030" width="99" height="14" as="geometry" />
        </mxCell>
        <mxCell id="jB6_mRZn_5eLLBD233gM-280" value="&lt;div style=&quot;text-align: center;&quot;&gt;&lt;span style=&quot;background-color: initial; font-size: 23px;&quot;&gt;&lt;font face=&quot;Times New Roman&quot;&gt;all features&lt;/font&gt;&lt;/span&gt;&lt;/div&gt;" style="text;whiteSpace=wrap;html=1;" vertex="1" parent="1">
          <mxGeometry x="-630" y="-2240" width="110" height="30" as="geometry" />
        </mxCell>
        <mxCell id="jB6_mRZn_5eLLBD233gM-281" value="" style="endArrow=classic;html=1;rounded=0;entryX=0;entryY=0;entryDx=250;entryDy=99.875;entryPerimeter=0;exitX=0.032;exitY=0.626;exitDx=0;exitDy=0;exitPerimeter=0;" edge="1" parent="1" source="jB6_mRZn_5eLLBD233gM-278" target="jB6_mRZn_5eLLBD233gM-277">
          <mxGeometry width="50" height="50" relative="1" as="geometry">
            <mxPoint x="-550" y="-2110" as="sourcePoint" />
            <mxPoint x="-480" y="-2040" as="targetPoint" />
          </mxGeometry>
        </mxCell>
        <mxCell id="jB6_mRZn_5eLLBD233gM-282" value="" style="endArrow=classic;html=1;rounded=0;entryX=0;entryY=0;entryDx=62;entryDy=99.875;entryPerimeter=0;exitX=0;exitY=0;exitDx=0;exitDy=59.875;exitPerimeter=0;" edge="1" parent="1" source="jB6_mRZn_5eLLBD233gM-277" target="jB6_mRZn_5eLLBD233gM-274">
          <mxGeometry width="50" height="50" relative="1" as="geometry">
            <mxPoint x="-550" y="-2090" as="sourcePoint" />
            <mxPoint x="-490" y="-2090" as="targetPoint" />
            <Array as="points" />
          </mxGeometry>
        </mxCell>
        <mxCell id="jB6_mRZn_5eLLBD233gM-283" value="" style="shape=cube;whiteSpace=wrap;html=1;boundedLbl=1;backgroundOutline=1;darkOpacity=0.05;darkOpacity2=0.1;size=10;rotation=0;flipV=0;flipH=1;fillColor=#f8cecc;strokeColor=#b85450;" vertex="1" parent="1">
          <mxGeometry x="-141.75" y="-2270" width="31.75" height="28.5" as="geometry" />
        </mxCell>
        <mxCell id="jB6_mRZn_5eLLBD233gM-284" value="&lt;font style=&quot;font-size: 18px;&quot; face=&quot;Times New Roman&quot;&gt;nn.Linear&lt;/font&gt;" style="rounded=0;whiteSpace=wrap;html=1;fillColor=#ffcc99;strokeColor=#36393d;" vertex="1" parent="1">
          <mxGeometry x="30.75" y="-2323" width="87" height="37" as="geometry" />
        </mxCell>
        <mxCell id="jB6_mRZn_5eLLBD233gM-285" value="" style="endArrow=classic;html=1;rounded=0;exitX=0;exitY=0;exitDx=0;exitDy=18.5;exitPerimeter=0;entryX=0;entryY=0.5;entryDx=0;entryDy=0;" edge="1" parent="1" source="jB6_mRZn_5eLLBD233gM-283" target="jB6_mRZn_5eLLBD233gM-284">
          <mxGeometry width="50" height="50" relative="1" as="geometry">
            <mxPoint x="-100" y="-2220" as="sourcePoint" />
            <mxPoint x="-50" y="-2270" as="targetPoint" />
          </mxGeometry>
        </mxCell>
        <mxCell id="jB6_mRZn_5eLLBD233gM-286" value="" style="endArrow=classic;html=1;rounded=0;exitX=-0.001;exitY=0.096;exitDx=0;exitDy=0;exitPerimeter=0;entryX=0;entryY=0.5;entryDx=0;entryDy=0;" edge="1" parent="1" source="jB6_mRZn_5eLLBD233gM-283" target="jB6_mRZn_5eLLBD233gM-284">
          <mxGeometry width="50" height="50" relative="1" as="geometry">
            <mxPoint x="-100" y="-2241" as="sourcePoint" />
            <mxPoint x="10" y="-2288" as="targetPoint" />
          </mxGeometry>
        </mxCell>
        <mxCell id="jB6_mRZn_5eLLBD233gM-287" value="$$48 \times 48 \times 16$$" style="text;html=1;strokeColor=none;fillColor=none;align=center;verticalAlign=middle;whiteSpace=wrap;rounded=0;fontStyle=1;rotation=-55;" vertex="1" parent="1">
          <mxGeometry x="-249.9999999999999" y="-2238" width="99" height="14" as="geometry" />
        </mxCell>
        <mxCell id="jB6_mRZn_5eLLBD233gM-288" value="$$1 \times 16$$" style="text;html=1;strokeColor=none;fillColor=none;align=center;verticalAlign=middle;whiteSpace=wrap;rounded=0;fontStyle=1;rotation=-15;" vertex="1" parent="1">
          <mxGeometry x="-83.49999999999987" y="-2303.5" width="99" height="14" as="geometry" />
        </mxCell>
        <mxCell id="jB6_mRZn_5eLLBD233gM-289" value="" style="endArrow=classic;html=1;rounded=0;exitX=1;exitY=0.5;exitDx=0;exitDy=0;" edge="1" parent="1" source="jB6_mRZn_5eLLBD233gM-284">
          <mxGeometry width="50" height="50" relative="1" as="geometry">
            <mxPoint x="121" y="-2303.5" as="sourcePoint" />
            <mxPoint x="160" y="-2304" as="targetPoint" />
          </mxGeometry>
        </mxCell>
        <mxCell id="jB6_mRZn_5eLLBD233gM-290" value="&lt;span style=&quot;color: rgb(0, 0, 0); font-family: &amp;quot;Times New Roman&amp;quot;; font-size: 18px; font-style: normal; font-variant-ligatures: normal; font-variant-caps: normal; font-weight: 400; letter-spacing: normal; orphans: 2; text-align: center; text-indent: 0px; text-transform: none; widows: 2; word-spacing: 0px; -webkit-text-stroke-width: 0px; white-space: normal; background-color: rgb(251, 251, 251); text-decoration-thickness: initial; text-decoration-style: initial; text-decoration-color: initial; display: inline !important; float: none;&quot;&gt;Logits&lt;/span&gt;" style="text;whiteSpace=wrap;html=1;" vertex="1" parent="1">
          <mxGeometry x="163" y="-2323" width="50" height="30" as="geometry" />
        </mxCell>
        <mxCell id="jB6_mRZn_5eLLBD233gM-291" value="" style="endArrow=classic;html=1;rounded=0;exitX=0;exitY=0;exitDx=0;exitDy=59.875;exitPerimeter=0;entryX=1.022;entryY=0.685;entryDx=0;entryDy=0;entryPerimeter=0;" edge="1" parent="1" source="jB6_mRZn_5eLLBD233gM-277" target="jB6_mRZn_5eLLBD233gM-292">
          <mxGeometry width="50" height="50" relative="1" as="geometry">
            <mxPoint x="-227.25" y="-2070" as="sourcePoint" />
            <mxPoint x="-150" y="-2040" as="targetPoint" />
            <Array as="points" />
          </mxGeometry>
        </mxCell>
        <mxCell id="jB6_mRZn_5eLLBD233gM-292" value="" style="shape=cube;whiteSpace=wrap;html=1;boundedLbl=1;backgroundOutline=1;darkOpacity=0.05;darkOpacity2=0.1;size=40;direction=east;flipH=1;fillColor=#ffe6cc;strokeColor=#d79b00;" vertex="1" parent="1">
          <mxGeometry x="-140.25" y="-2130" width="62" height="133.75" as="geometry" />
        </mxCell>
        <mxCell id="jB6_mRZn_5eLLBD233gM-293" value="" style="shape=cube;whiteSpace=wrap;html=1;boundedLbl=1;backgroundOutline=1;darkOpacity=0.05;darkOpacity2=0.1;size=40;direction=east;flipH=1;fillColor=#f8cecc;strokeColor=#b85450;" vertex="1" parent="1">
          <mxGeometry x="-112.08" y="-2130" width="42" height="133.75" as="geometry" />
        </mxCell>
        <mxCell id="jB6_mRZn_5eLLBD233gM-294" value="" style="shape=cube;whiteSpace=wrap;html=1;boundedLbl=1;backgroundOutline=1;darkOpacity=0.05;darkOpacity2=0.1;size=40;direction=east;flipH=1;fillColor=#d5e8d4;strokeColor=#82b366;" vertex="1" parent="1">
          <mxGeometry x="-102.24999999999999" y="-2130" width="42" height="133.75" as="geometry" />
        </mxCell>
        <mxCell id="jB6_mRZn_5eLLBD233gM-295" value="" style="shape=cube;whiteSpace=wrap;html=1;boundedLbl=1;backgroundOutline=1;darkOpacity=0.05;darkOpacity2=0.1;size=40;direction=east;flipH=1;fillColor=#e1d5e7;strokeColor=#9673a6;" vertex="1" parent="1">
          <mxGeometry x="-92.24999999999999" y="-2130" width="42" height="133.75" as="geometry" />
        </mxCell>
        <mxCell id="jB6_mRZn_5eLLBD233gM-296" value="&lt;font style=&quot;font-size: 18px;&quot; face=&quot;Times New Roman&quot;&gt;nn.Flatten&lt;/font&gt;" style="rounded=0;whiteSpace=wrap;html=1;fillColor=#cdeb8b;strokeColor=#36393d;" vertex="1" parent="1">
          <mxGeometry x="30.75" y="-2077.25" width="87" height="37" as="geometry" />
        </mxCell>
        <mxCell id="jB6_mRZn_5eLLBD233gM-297" value="&lt;font style=&quot;font-size: 18px;&quot; face=&quot;Times New Roman&quot;&gt;nn.Linear&lt;/font&gt;" style="rounded=0;whiteSpace=wrap;html=1;fillColor=#ffcc99;strokeColor=#36393d;" vertex="1" parent="1">
          <mxGeometry x="198.5" y="-2077" width="87" height="37" as="geometry" />
        </mxCell>
        <mxCell id="jB6_mRZn_5eLLBD233gM-298" value="" style="endArrow=classic;html=1;rounded=0;entryX=0;entryY=0.5;entryDx=0;entryDy=0;exitX=0.013;exitY=0.537;exitDx=0;exitDy=0;exitPerimeter=0;" edge="1" parent="1" source="jB6_mRZn_5eLLBD233gM-295" target="jB6_mRZn_5eLLBD233gM-296">
          <mxGeometry width="50" height="50" relative="1" as="geometry">
            <mxPoint x="-50" y="-2060" as="sourcePoint" />
            <mxPoint y="-2044" as="targetPoint" />
            <Array as="points" />
          </mxGeometry>
        </mxCell>
        <mxCell id="jB6_mRZn_5eLLBD233gM-299" value="$$48 \times 48 \times 16$$" style="text;html=1;strokeColor=none;fillColor=none;align=center;verticalAlign=middle;whiteSpace=wrap;rounded=0;fontStyle=1;rotation=45;" vertex="1" parent="1">
          <mxGeometry x="-242.7499999999999" y="-2106" width="99" height="14" as="geometry" />
        </mxCell>
        <mxCell id="jB6_mRZn_5eLLBD233gM-300" value="$$48 \times 48$$" style="text;html=1;strokeColor=none;fillColor=none;align=center;verticalAlign=middle;whiteSpace=wrap;rounded=0;fontStyle=1;rotation=0;" vertex="1" parent="1">
          <mxGeometry x="-60.249999999999886" y="-2075.25" width="99" height="14" as="geometry" />
        </mxCell>
        <mxCell id="jB6_mRZn_5eLLBD233gM-301" value="" style="endArrow=classic;html=1;rounded=0;entryX=0;entryY=0.5;entryDx=0;entryDy=0;exitX=1;exitY=0.5;exitDx=0;exitDy=0;" edge="1" parent="1" source="jB6_mRZn_5eLLBD233gM-296" target="jB6_mRZn_5eLLBD233gM-297">
          <mxGeometry width="50" height="50" relative="1" as="geometry">
            <mxPoint x="30" y="-2100" as="sourcePoint" />
            <mxPoint x="80" y="-2150" as="targetPoint" />
          </mxGeometry>
        </mxCell>
        <mxCell id="jB6_mRZn_5eLLBD233gM-302" value="$$1 \times 2304$$" style="text;html=1;strokeColor=none;fillColor=none;align=center;verticalAlign=middle;whiteSpace=wrap;rounded=0;fontStyle=1;rotation=0;" vertex="1" parent="1">
          <mxGeometry x="102.50000000000011" y="-2075.25" width="99" height="14" as="geometry" />
        </mxCell>
        <mxCell id="jB6_mRZn_5eLLBD233gM-303" value="" style="endArrow=classic;html=1;rounded=0;exitX=1;exitY=0.5;exitDx=0;exitDy=0;" edge="1" parent="1">
          <mxGeometry width="50" height="50" relative="1" as="geometry">
            <mxPoint x="285.5" y="-2058" as="sourcePoint" />
            <mxPoint x="327.5" y="-2058" as="targetPoint" />
          </mxGeometry>
        </mxCell>
        <mxCell id="jB6_mRZn_5eLLBD233gM-304" value="&lt;span style=&quot;color: rgb(0, 0, 0); font-family: &amp;quot;Times New Roman&amp;quot;; font-size: 18px; font-style: normal; font-variant-ligatures: normal; font-variant-caps: normal; font-weight: 400; letter-spacing: normal; orphans: 2; text-align: center; text-indent: 0px; text-transform: none; widows: 2; word-spacing: 0px; -webkit-text-stroke-width: 0px; white-space: normal; background-color: rgb(251, 251, 251); text-decoration-thickness: initial; text-decoration-style: initial; text-decoration-color: initial; display: inline !important; float: none;&quot;&gt;Value&lt;/span&gt;" style="text;whiteSpace=wrap;html=1;" vertex="1" parent="1">
          <mxGeometry x="330.5" y="-2077" width="50" height="30" as="geometry" />
        </mxCell>
        <mxCell id="jB6_mRZn_5eLLBD233gM-305" value="&lt;span style=&quot;color: rgb(0, 0, 0); font-family: &amp;quot;Times New Roman&amp;quot;; font-style: normal; font-variant-ligatures: normal; font-variant-caps: normal; font-weight: 400; letter-spacing: normal; orphans: 2; text-align: center; text-indent: 0px; text-transform: none; widows: 2; word-spacing: 0px; -webkit-text-stroke-width: 0px; white-space: normal; background-color: rgb(251, 251, 251); text-decoration-thickness: initial; text-decoration-style: initial; text-decoration-color: initial; float: none; display: inline !important;&quot;&gt;&lt;font style=&quot;font-size: 24px;&quot;&gt;Critic&lt;/font&gt;&lt;/span&gt;" style="text;whiteSpace=wrap;html=1;" vertex="1" parent="1">
          <mxGeometry x="325" y="-2022" width="80" height="50" as="geometry" />
        </mxCell>
        <mxCell id="jB6_mRZn_5eLLBD233gM-306" value="&lt;span style=&quot;color: rgb(0, 0, 0); font-family: &amp;quot;Times New Roman&amp;quot;; font-style: normal; font-variant-ligatures: normal; font-variant-caps: normal; font-weight: 400; letter-spacing: normal; orphans: 2; text-align: center; text-indent: 0px; text-transform: none; widows: 2; word-spacing: 0px; -webkit-text-stroke-width: 0px; white-space: normal; background-color: rgb(251, 251, 251); text-decoration-thickness: initial; text-decoration-style: initial; text-decoration-color: initial; float: none; display: inline !important;&quot;&gt;&lt;font style=&quot;font-size: 24px;&quot;&gt;Actor&lt;/font&gt;&lt;/span&gt;" style="text;whiteSpace=wrap;html=1;" vertex="1" parent="1">
          <mxGeometry x="320.49999999999994" y="-2253" width="80" height="50" as="geometry" />
        </mxCell>
        <mxCell id="jB6_mRZn_5eLLBD233gM-307" value="$$1 \times 16$$" style="text;html=1;strokeColor=none;fillColor=none;align=center;verticalAlign=middle;whiteSpace=wrap;rounded=0;fontStyle=1;rotation=0;" vertex="1" parent="1">
          <mxGeometry x="138.5000000000001" y="-2293" width="99" height="14" as="geometry" />
        </mxCell>
        <mxCell id="jB6_mRZn_5eLLBD233gM-308" value="$$1 \times 1$$" style="text;html=1;strokeColor=none;fillColor=none;align=center;verticalAlign=middle;whiteSpace=wrap;rounded=0;fontStyle=1;rotation=0;" vertex="1" parent="1">
          <mxGeometry x="306.0000000000001" y="-2048" width="99" height="14" as="geometry" />
        </mxCell>
        <mxCell id="jB6_mRZn_5eLLBD233gM-309" value="" style="shape=cube;whiteSpace=wrap;html=1;boundedLbl=1;backgroundOutline=1;darkOpacity=0.05;darkOpacity2=0.1;size=7;direction=east;flipH=1;fillColor=#ffe6cc;strokeColor=#d79b00;" vertex="1" parent="1">
          <mxGeometry x="409" y="-2351.8099999999995" width="54.5" height="56.81" as="geometry" />
        </mxCell>
        <mxCell id="jB6_mRZn_5eLLBD233gM-310" value="" style="shape=cube;whiteSpace=wrap;html=1;boundedLbl=1;backgroundOutline=1;darkOpacity=0.05;darkOpacity2=0.1;size=7;direction=east;flipH=1;fillColor=#f8cecc;strokeColor=#b85450;" vertex="1" parent="1">
          <mxGeometry x="424.99999999999994" y="-2191.4699999999993" width="12.75" height="50" as="geometry" />
        </mxCell>
        <mxCell id="jB6_mRZn_5eLLBD233gM-311" value="&lt;font style=&quot;font-size: 16px;&quot; face=&quot;Times New Roman&quot;&gt;3x3 Convolutional Layer&lt;br&gt;&lt;/font&gt;&lt;div style=&quot;font-size: 16px;&quot;&gt;&lt;span style=&quot;background-color: initial;&quot;&gt;&lt;font style=&quot;font-size: 16px;&quot; face=&quot;Ne84J0Gd9cENzF5O0XFA&quot;&gt;with spectral norm&lt;/font&gt;&lt;/span&gt;&lt;/div&gt;" style="text;html=1;strokeColor=none;fillColor=none;align=left;verticalAlign=middle;whiteSpace=wrap;rounded=0;fontStyle=1" vertex="1" parent="1">
          <mxGeometry x="478.9999999999999" y="-2333.7599999999993" width="231" height="23.88" as="geometry" />
        </mxCell>
        <mxCell id="jB6_mRZn_5eLLBD233gM-312" value="&lt;font face=&quot;Times New Roman&quot; style=&quot;font-size: 16px;&quot;&gt;Batch Normalization&lt;/font&gt;" style="text;html=1;strokeColor=none;fillColor=none;align=left;verticalAlign=middle;whiteSpace=wrap;rounded=0;fontStyle=1" vertex="1" parent="1">
          <mxGeometry x="474.99999999999994" y="-2178.4099999999994" width="181" height="23.88" as="geometry" />
        </mxCell>
        <mxCell id="jB6_mRZn_5eLLBD233gM-313" value="&lt;font style=&quot;font-size: 16px;&quot; face=&quot;Times New Roman&quot;&gt;Leaky ReLU activation&lt;/font&gt;" style="text;html=1;strokeColor=none;fillColor=none;align=left;verticalAlign=middle;whiteSpace=wrap;rounded=0;fontStyle=1" vertex="1" parent="1">
          <mxGeometry x="474.99999999999994" y="-2111.4699999999993" width="201" height="23.88" as="geometry" />
        </mxCell>
        <mxCell id="jB6_mRZn_5eLLBD233gM-314" value="&lt;font style=&quot;font-size: 16px;&quot; face=&quot;Times New Roman&quot;&gt;Global Average Pooling Layer&lt;/font&gt;" style="text;html=1;strokeColor=none;fillColor=none;align=left;verticalAlign=middle;whiteSpace=wrap;rounded=0;fontStyle=1" vertex="1" parent="1">
          <mxGeometry x="474.99999999999994" y="-2042.4099999999999" width="231" height="23.88" as="geometry" />
        </mxCell>
        <mxCell id="jB6_mRZn_5eLLBD233gM-315" value="" style="shape=cube;whiteSpace=wrap;html=1;boundedLbl=1;backgroundOutline=1;darkOpacity=0.05;darkOpacity2=0.1;size=7;direction=east;flipH=1;fillColor=#d5e8d4;strokeColor=#82b366;" vertex="1" parent="1">
          <mxGeometry x="424.99999999999994" y="-2124.5299999999993" width="12.75" height="50" as="geometry" />
        </mxCell>
        <mxCell id="jB6_mRZn_5eLLBD233gM-316" value="" style="shape=cube;whiteSpace=wrap;html=1;boundedLbl=1;backgroundOutline=1;darkOpacity=0.05;darkOpacity2=0.1;size=7;direction=east;flipH=1;fillColor=#e1d5e7;strokeColor=#9673a6;" vertex="1" parent="1">
          <mxGeometry x="424.99999999999994" y="-2056.5299999999997" width="12.75" height="50" as="geometry" />
        </mxCell>
        <mxCell id="jB6_mRZn_5eLLBD233gM-317" value="" style="shape=cube;whiteSpace=wrap;html=1;boundedLbl=1;backgroundOutline=1;darkOpacity=0.05;darkOpacity2=0.1;size=7;direction=east;flipH=1;fillColor=#f9f7ed;strokeColor=#36393d;opacity=40;" vertex="1" parent="1">
          <mxGeometry x="409" y="-2276.999999999999" width="54.5" height="56.81" as="geometry" />
        </mxCell>
        <mxCell id="jB6_mRZn_5eLLBD233gM-318" value="&lt;font face=&quot;Times New Roman&quot;&gt;&lt;span style=&quot;font-size: 16px;&quot;&gt;Identity Layer&lt;/span&gt;&lt;/font&gt;" style="text;html=1;strokeColor=none;fillColor=none;align=left;verticalAlign=middle;whiteSpace=wrap;rounded=0;fontStyle=1" vertex="1" parent="1">
          <mxGeometry x="478.9999999999999" y="-2258.95" width="231" height="23.88" as="geometry" />
        </mxCell>
        <mxCell id="jB6_mRZn_5eLLBD233gM-319" value="$$16 \rightarrow 16$$" style="text;html=1;strokeColor=none;fillColor=none;align=center;verticalAlign=middle;whiteSpace=wrap;rounded=0;fontStyle=1;rotation=0;" vertex="1" parent="1">
          <mxGeometry x="24.750000000000114" y="-2284" width="99" height="14" as="geometry" />
        </mxCell>
        <mxCell id="jB6_mRZn_5eLLBD233gM-320" value="$$2304 \rightarrow 1$$" style="text;html=1;strokeColor=none;fillColor=none;align=center;verticalAlign=middle;whiteSpace=wrap;rounded=0;fontStyle=1;rotation=0;" vertex="1" parent="1">
          <mxGeometry x="192.5000000000001" y="-2038.53" width="99" height="14" as="geometry" />
        </mxCell>
        <mxCell id="jB6_mRZn_5eLLBD233gM-321" value="" style="rounded=0;whiteSpace=wrap;html=1;fillColor=#bac8d3;movable=1;resizable=1;rotatable=1;deletable=1;editable=1;locked=0;connectable=1;strokeColor=#23445d;" vertex="1" parent="1">
          <mxGeometry x="621.3" y="-347.24" width="650" height="210" as="geometry" />
        </mxCell>
        <mxCell id="jB6_mRZn_5eLLBD233gM-322" value="" style="rounded=0;whiteSpace=wrap;html=1;fillColor=#e1d5e7;movable=1;resizable=1;rotatable=1;deletable=1;editable=1;locked=0;connectable=1;strokeColor=#9673a6;" vertex="1" parent="1">
          <mxGeometry x="-68.69999999999999" y="-347.24" width="650" height="210" as="geometry" />
        </mxCell>
        <mxCell id="jB6_mRZn_5eLLBD233gM-323" value="" style="rounded=0;whiteSpace=wrap;html=1;fillColor=none;movable=0;resizable=0;rotatable=0;deletable=0;editable=0;locked=1;connectable=0;" vertex="1" parent="1">
          <mxGeometry x="-420" y="-370" width="1770" height="1025.13" as="geometry" />
        </mxCell>
        <mxCell id="jB6_mRZn_5eLLBD233gM-324" value="&lt;font style=&quot;font-size: 22px;&quot; face=&quot;Times New Roman&quot;&gt;D&lt;/font&gt;" style="shape=cube;whiteSpace=wrap;html=1;boundedLbl=1;backgroundOutline=1;darkOpacity=0.05;darkOpacity2=0.1;size=36;direction=east;flipH=1;fillColor=#e1d5e7;strokeColor=#9673a6;" vertex="1" parent="1">
          <mxGeometry x="-146" y="-70" width="136" height="138.12" as="geometry" />
        </mxCell>
        <mxCell id="jB6_mRZn_5eLLBD233gM-325" value="" style="shape=cube;whiteSpace=wrap;html=1;boundedLbl=1;backgroundOutline=1;darkOpacity=0.05;darkOpacity2=0.1;size=7;direction=east;flipH=1;fillColor=#ffe6cc;strokeColor=#d79b00;" vertex="1" parent="1">
          <mxGeometry x="957.12" y="292" width="54.5" height="56.81" as="geometry" />
        </mxCell>
        <mxCell id="jB6_mRZn_5eLLBD233gM-326" value="" style="shape=cube;whiteSpace=wrap;html=1;boundedLbl=1;backgroundOutline=1;darkOpacity=0.05;darkOpacity2=0.1;size=7;direction=east;flipH=1;fillColor=#f8cecc;strokeColor=#b85450;" vertex="1" parent="1">
          <mxGeometry x="974.12" y="367.87" width="12.75" height="50" as="geometry" />
        </mxCell>
        <mxCell id="jB6_mRZn_5eLLBD233gM-327" value="&lt;font style=&quot;font-size: 20px;&quot; face=&quot;Times New Roman&quot;&gt;3x3 Convolutional Layer&lt;br&gt;&lt;/font&gt;&lt;div style=&quot;font-size: 20px;&quot;&gt;&lt;span style=&quot;background-color: initial;&quot;&gt;&lt;font style=&quot;font-size: 20px;&quot; face=&quot;Ne84J0Gd9cENzF5O0XFA&quot;&gt;with spectral norm&lt;/font&gt;&lt;/span&gt;&lt;/div&gt;" style="text;html=1;strokeColor=none;fillColor=none;align=left;verticalAlign=middle;whiteSpace=wrap;rounded=0;fontStyle=1" vertex="1" parent="1">
          <mxGeometry x="1027.12" y="310.05" width="231" height="23.88" as="geometry" />
        </mxCell>
        <mxCell id="jB6_mRZn_5eLLBD233gM-328" value="&lt;font face=&quot;Times New Roman&quot; style=&quot;font-size: 20px;&quot;&gt;Batch Normalization&lt;/font&gt;" style="text;html=1;strokeColor=none;fillColor=none;align=left;verticalAlign=middle;whiteSpace=wrap;rounded=0;fontStyle=1" vertex="1" parent="1">
          <mxGeometry x="1027.12" y="380.93" width="181" height="23.88" as="geometry" />
        </mxCell>
        <mxCell id="jB6_mRZn_5eLLBD233gM-329" value="&lt;font style=&quot;font-size: 20px;&quot; face=&quot;Times New Roman&quot;&gt;Leaky ReLU activation&lt;/font&gt;" style="text;html=1;strokeColor=none;fillColor=none;align=left;verticalAlign=middle;whiteSpace=wrap;rounded=0;fontStyle=1" vertex="1" parent="1">
          <mxGeometry x="1027.12" y="447.87" width="201" height="23.88" as="geometry" />
        </mxCell>
        <mxCell id="jB6_mRZn_5eLLBD233gM-330" value="" style="shape=cube;whiteSpace=wrap;html=1;boundedLbl=1;backgroundOutline=1;darkOpacity=0.05;darkOpacity2=0.1;size=40;direction=east;flipH=1;fillColor=#f5f5f5;strokeColor=#666666;fontColor=#333333;" vertex="1" parent="1">
          <mxGeometry x="-276" y="-214.75" width="50" height="133.75" as="geometry" />
        </mxCell>
        <mxCell id="jB6_mRZn_5eLLBD233gM-331" value="" style="shape=cube;whiteSpace=wrap;html=1;boundedLbl=1;backgroundOutline=1;darkOpacity=0.05;darkOpacity2=0.1;size=40;direction=east;flipH=1;fillColor=#f5f5f5;strokeColor=#666666;fontColor=#333333;" vertex="1" parent="1">
          <mxGeometry x="-346.5" y="14" width="60" height="133.75" as="geometry" />
        </mxCell>
        <mxCell id="jB6_mRZn_5eLLBD233gM-332" value="$$48 \times 48 \times 16$$" style="text;html=1;strokeColor=none;fillColor=none;align=center;verticalAlign=middle;whiteSpace=wrap;rounded=0;fontStyle=1" vertex="1" parent="1">
          <mxGeometry x="-263.5" y="77.13" width="99" height="14" as="geometry" />
        </mxCell>
        <mxCell id="jB6_mRZn_5eLLBD233gM-333" value="$$64 \times 64 \times 2$$" style="text;html=1;strokeColor=none;fillColor=none;align=center;verticalAlign=middle;whiteSpace=wrap;rounded=0;fontStyle=1" vertex="1" parent="1">
          <mxGeometry x="-339.5" y="-70" width="99" height="14" as="geometry" />
        </mxCell>
        <mxCell id="jB6_mRZn_5eLLBD233gM-334" value="$$64 \times 64 \times 14$$" style="text;html=1;strokeColor=none;fillColor=none;align=center;verticalAlign=middle;whiteSpace=wrap;rounded=0;fontStyle=1" vertex="1" parent="1">
          <mxGeometry x="-385.5" y="156" width="99" height="14" as="geometry" />
        </mxCell>
        <mxCell id="jB6_mRZn_5eLLBD233gM-335" value="" style="shape=cube;whiteSpace=wrap;html=1;boundedLbl=1;backgroundOutline=1;darkOpacity=0.05;darkOpacity2=0.1;size=40;direction=east;flipH=1;fillColor=#f5f5f5;strokeColor=#666666;fontColor=#333333;" vertex="1" parent="1">
          <mxGeometry x="-226" y="-65.63" width="60" height="133.75" as="geometry" />
        </mxCell>
        <mxCell id="jB6_mRZn_5eLLBD233gM-336" style="edgeStyle=orthogonalEdgeStyle;rounded=0;orthogonalLoop=1;jettySize=auto;html=1;exitX=0;exitY=0;exitDx=0;exitDy=46.875;exitPerimeter=0;entryX=0;entryY=0;entryDx=60;entryDy=86.875;entryPerimeter=0;" edge="1" parent="1" source="jB6_mRZn_5eLLBD233gM-331" target="jB6_mRZn_5eLLBD233gM-335">
          <mxGeometry relative="1" as="geometry" />
        </mxCell>
        <mxCell id="jB6_mRZn_5eLLBD233gM-337" value="&lt;b&gt;&lt;font face=&quot;Times New Roman&quot; style=&quot;font-size: 18px;&quot;&gt;global features&lt;/font&gt;&lt;/b&gt;" style="text;html=1;strokeColor=none;fillColor=none;align=center;verticalAlign=middle;whiteSpace=wrap;rounded=0;" vertex="1" parent="1">
          <mxGeometry x="-286.5" y="-244.75" width="116.5" height="30" as="geometry" />
        </mxCell>
        <mxCell id="jB6_mRZn_5eLLBD233gM-338" value="&lt;b&gt;&lt;font style=&quot;font-size: 18px;&quot; face=&quot;Times New Roman&quot;&gt;map features&lt;/font&gt;&lt;/b&gt;" style="text;html=1;strokeColor=none;fillColor=none;align=center;verticalAlign=middle;whiteSpace=wrap;rounded=0;" vertex="1" parent="1">
          <mxGeometry x="-350.5" y="-15.999999999999991" width="110" height="30" as="geometry" />
        </mxCell>
        <mxCell id="jB6_mRZn_5eLLBD233gM-339" value="&lt;b&gt;&lt;font style=&quot;font-size: 18px;&quot; face=&quot;Times New Roman&quot;&gt;all features&lt;/font&gt;&lt;/b&gt;" style="text;html=1;strokeColor=none;fillColor=none;align=center;verticalAlign=middle;whiteSpace=wrap;rounded=0;" vertex="1" parent="1">
          <mxGeometry x="-230" y="-94.62" width="110" height="30" as="geometry" />
        </mxCell>
        <mxCell id="jB6_mRZn_5eLLBD233gM-340" value="&lt;font style=&quot;font-size: 14px;&quot;&gt;$$24 \times 24 \times 32$$&lt;/font&gt;" style="text;html=1;strokeColor=none;fillColor=none;align=center;verticalAlign=middle;whiteSpace=wrap;rounded=0;fontStyle=1" vertex="1" parent="1">
          <mxGeometry width="99" height="14" as="geometry" />
        </mxCell>
        <mxCell id="jB6_mRZn_5eLLBD233gM-341" value="" style="shape=cube;whiteSpace=wrap;html=1;boundedLbl=1;backgroundOutline=1;darkOpacity=0.05;darkOpacity2=0.1;size=40;direction=east;flipH=1;fillColor=#ffe6cc;strokeColor=#d79b00;" vertex="1" parent="1">
          <mxGeometry x="51.3" y="-337.24" width="62" height="133.75" as="geometry" />
        </mxCell>
        <mxCell id="jB6_mRZn_5eLLBD233gM-342" value="$$H \times W \times C$$" style="text;html=1;strokeColor=none;fillColor=none;align=center;verticalAlign=middle;whiteSpace=wrap;rounded=0;fontStyle=1" vertex="1" parent="1">
          <mxGeometry x="-64.69999999999999" y="-267.24" width="99" height="14" as="geometry" />
        </mxCell>
        <mxCell id="jB6_mRZn_5eLLBD233gM-343" value="" style="shape=cube;whiteSpace=wrap;html=1;boundedLbl=1;backgroundOutline=1;darkOpacity=0.05;darkOpacity2=0.1;size=40;direction=east;flipH=1;fillColor=#f8cecc;strokeColor=#b85450;" vertex="1" parent="1">
          <mxGeometry x="81.3" y="-336.23" width="42" height="133.75" as="geometry" />
        </mxCell>
        <mxCell id="jB6_mRZn_5eLLBD233gM-344" value="&lt;font style=&quot;font-size: 20px;&quot; face=&quot;Times New Roman&quot;&gt;Squeeze-and-Excitation&lt;/font&gt;" style="text;html=1;strokeColor=none;fillColor=none;align=left;verticalAlign=middle;whiteSpace=wrap;rounded=0;fontStyle=1" vertex="1" parent="1">
          <mxGeometry x="1027.12" y="516.93" width="231" height="23.88" as="geometry" />
        </mxCell>
        <mxCell id="jB6_mRZn_5eLLBD233gM-345" value="" style="edgeStyle=orthogonalEdgeStyle;rounded=0;orthogonalLoop=1;jettySize=auto;html=1;fontFamily=Helvetica;fontSize=12;fontColor=default;resizable=1;" edge="1" parent="1" source="jB6_mRZn_5eLLBD233gM-346" target="jB6_mRZn_5eLLBD233gM-388">
          <mxGeometry relative="1" as="geometry">
            <Array as="points">
              <mxPoint x="670" y="430" />
              <mxPoint x="670" y="430" />
            </Array>
          </mxGeometry>
        </mxCell>
        <mxCell id="jB6_mRZn_5eLLBD233gM-346" value="&lt;font style=&quot;font-size: 20px;&quot;&gt;+&lt;/font&gt;" style="ellipse;whiteSpace=wrap;html=1;aspect=fixed;" vertex="1" parent="1">
          <mxGeometry x="605.5" y="410" width="40.25" height="40.25" as="geometry" />
        </mxCell>
        <mxCell id="jB6_mRZn_5eLLBD233gM-347" value="" style="edgeStyle=orthogonalEdgeStyle;rounded=0;orthogonalLoop=1;jettySize=auto;html=1;fontFamily=Helvetica;fontSize=12;fontColor=default;resizable=1;entryX=0;entryY=0;entryDx=136;entryDy=87.06;entryPerimeter=0;exitX=1;exitY=0.5;exitDx=0;exitDy=0;" edge="1" parent="1" source="jB6_mRZn_5eLLBD233gM-348" target="jB6_mRZn_5eLLBD233gM-407">
          <mxGeometry relative="1" as="geometry">
            <mxPoint x="997.2499695651941" y="20.160000000000082" as="sourcePoint" />
            <mxPoint x="1050" y="19" as="targetPoint" />
          </mxGeometry>
        </mxCell>
        <mxCell id="jB6_mRZn_5eLLBD233gM-348" value="&lt;font style=&quot;font-size: 20px;&quot;&gt;+&lt;/font&gt;" style="ellipse;whiteSpace=wrap;html=1;aspect=fixed;" vertex="1" parent="1">
          <mxGeometry x="957" width="40.25" height="40.25" as="geometry" />
        </mxCell>
        <mxCell id="jB6_mRZn_5eLLBD233gM-349" value="&lt;br&gt;&lt;div&gt;$$1 \times 1 \times&amp;nbsp;2$$&lt;/div&gt;" style="text;html=1;strokeColor=none;fillColor=none;align=center;verticalAlign=middle;whiteSpace=wrap;rounded=0;fontStyle=1" vertex="1" parent="1">
          <mxGeometry x="-457.75" y="-137.24" width="160" height="14" as="geometry" />
        </mxCell>
        <mxCell id="jB6_mRZn_5eLLBD233gM-350" value="&lt;br&gt;BROADCAST" style="shape=trapezoid;perimeter=trapezoidPerimeter;whiteSpace=wrap;html=1;fixedSize=1;rotation=-90;size=38;" vertex="1" parent="1">
          <mxGeometry x="-376.5" y="-177.87" width="120" height="60" as="geometry" />
        </mxCell>
        <mxCell id="jB6_mRZn_5eLLBD233gM-351" style="edgeStyle=orthogonalEdgeStyle;rounded=0;orthogonalLoop=1;jettySize=auto;html=1;exitX=0;exitY=0;exitDx=20;exitDy=113.75;exitPerimeter=0;entryX=0;entryY=0;entryDx=60;entryDy=86.875;entryPerimeter=0;" edge="1" parent="1" source="jB6_mRZn_5eLLBD233gM-330" target="jB6_mRZn_5eLLBD233gM-335">
          <mxGeometry relative="1" as="geometry">
            <Array as="points">
              <mxPoint x="-246" y="21" />
            </Array>
          </mxGeometry>
        </mxCell>
        <mxCell id="jB6_mRZn_5eLLBD233gM-352" value="" style="shape=cube;whiteSpace=wrap;html=1;boundedLbl=1;backgroundOutline=1;darkOpacity=0.05;darkOpacity2=0.1;size=5;direction=east;flipH=1;fillColor=#f5f5f5;fontColor=#333333;strokeColor=#666666;" vertex="1" parent="1">
          <mxGeometry x="-386" y="-155.49" width="16.5" height="15.24" as="geometry" />
        </mxCell>
        <mxCell id="jB6_mRZn_5eLLBD233gM-353" value="" style="shape=cube;whiteSpace=wrap;html=1;boundedLbl=1;backgroundOutline=1;darkOpacity=0.05;darkOpacity2=0.1;size=40;direction=east;flipH=1;fillColor=#d5e8d4;strokeColor=#82b366;" vertex="1" parent="1">
          <mxGeometry x="91.3" y="-336.23" width="42" height="133.75" as="geometry" />
        </mxCell>
        <mxCell id="jB6_mRZn_5eLLBD233gM-354" value="" style="shape=cube;whiteSpace=wrap;html=1;boundedLbl=1;backgroundOutline=1;darkOpacity=0.05;darkOpacity2=0.1;size=40;direction=east;flipH=1;fillColor=#ffe6cc;strokeColor=#d79b00;" vertex="1" parent="1">
          <mxGeometry x="141.3" y="-337.24" width="62" height="133.75" as="geometry" />
        </mxCell>
        <mxCell id="jB6_mRZn_5eLLBD233gM-355" value="" style="shape=cube;whiteSpace=wrap;html=1;boundedLbl=1;backgroundOutline=1;darkOpacity=0.05;darkOpacity2=0.1;size=40;direction=east;flipH=1;fillColor=#f8cecc;strokeColor=#b85450;" vertex="1" parent="1">
          <mxGeometry x="171.3" y="-336.23" width="42" height="133.75" as="geometry" />
        </mxCell>
        <mxCell id="jB6_mRZn_5eLLBD233gM-356" value="" style="shape=cube;whiteSpace=wrap;html=1;boundedLbl=1;backgroundOutline=1;darkOpacity=0.05;darkOpacity2=0.1;size=40;direction=east;flipH=1;fillColor=#d5e8d4;strokeColor=#82b366;" vertex="1" parent="1">
          <mxGeometry x="181.3" y="-336.23" width="42" height="133.75" as="geometry" />
        </mxCell>
        <mxCell id="jB6_mRZn_5eLLBD233gM-357" value="" style="shape=cube;whiteSpace=wrap;html=1;boundedLbl=1;backgroundOutline=1;darkOpacity=0.05;darkOpacity2=0.1;size=40;direction=east;flipH=1;fillColor=#dae8fc;strokeColor=#6c8ebf;" vertex="1" parent="1">
          <mxGeometry x="191.3" y="-336.23" width="42" height="133.75" as="geometry" />
        </mxCell>
        <mxCell id="jB6_mRZn_5eLLBD233gM-358" value="" style="endArrow=classic;html=1;rounded=0;exitX=-0.002;exitY=0.476;exitDx=0;exitDy=0;exitPerimeter=0;" edge="1" parent="1" source="jB6_mRZn_5eLLBD233gM-322">
          <mxGeometry width="50" height="50" relative="1" as="geometry">
            <mxPoint x="-8.699999999999989" y="-247.24" as="sourcePoint" />
            <mxPoint x="51.3" y="-247.24" as="targetPoint" />
          </mxGeometry>
        </mxCell>
        <mxCell id="jB6_mRZn_5eLLBD233gM-359" value="" style="shape=cube;whiteSpace=wrap;html=1;boundedLbl=1;backgroundOutline=1;darkOpacity=0.05;darkOpacity2=0.1;size=40;direction=east;flipH=1;fillColor=#d5e8d4;strokeColor=#82b366;" vertex="1" parent="1">
          <mxGeometry x="365.8" y="-336.23" width="42" height="133.75" as="geometry" />
        </mxCell>
        <mxCell id="jB6_mRZn_5eLLBD233gM-360" value="&lt;font style=&quot;font-size: 20px;&quot;&gt;+&lt;/font&gt;" style="ellipse;whiteSpace=wrap;html=1;aspect=fixed;" vertex="1" parent="1">
          <mxGeometry x="292.05" y="-273.24" width="40.25" height="40.25" as="geometry" />
        </mxCell>
        <mxCell id="jB6_mRZn_5eLLBD233gM-361" value="" style="endArrow=classic;html=1;rounded=0;exitX=-0.009;exitY=0.664;exitDx=0;exitDy=0;exitPerimeter=0;entryX=-0.019;entryY=0.628;entryDx=0;entryDy=0;entryPerimeter=0;" edge="1" parent="1" source="jB6_mRZn_5eLLBD233gM-357" target="jB6_mRZn_5eLLBD233gM-360">
          <mxGeometry width="50" height="50" relative="1" as="geometry">
            <mxPoint x="232.05" y="-253.61" as="sourcePoint" />
            <mxPoint x="271.3" y="-247.24" as="targetPoint" />
          </mxGeometry>
        </mxCell>
        <mxCell id="jB6_mRZn_5eLLBD233gM-362" value="" style="endArrow=classic;html=1;rounded=0;entryX=0.5;entryY=1;entryDx=0;entryDy=0;" edge="1" parent="1" target="jB6_mRZn_5eLLBD233gM-360">
          <mxGeometry width="50" height="50" relative="1" as="geometry">
            <mxPoint x="11.299999999999997" y="-247.24" as="sourcePoint" />
            <mxPoint x="351.3" y="-167.24" as="targetPoint" />
            <Array as="points">
              <mxPoint x="11.299999999999997" y="-167.24" />
              <mxPoint x="311.3" y="-167.24" />
            </Array>
          </mxGeometry>
        </mxCell>
        <mxCell id="jB6_mRZn_5eLLBD233gM-363" value="" style="endArrow=classic;html=1;rounded=0;exitX=1;exitY=0.596;exitDx=0;exitDy=0;exitPerimeter=0;entryX=0;entryY=0;entryDx=42;entryDy=86.875;entryPerimeter=0;" edge="1" parent="1" source="jB6_mRZn_5eLLBD233gM-360" target="jB6_mRZn_5eLLBD233gM-359">
          <mxGeometry width="50" height="50" relative="1" as="geometry">
            <mxPoint x="334.8" y="-253.61" as="sourcePoint" />
            <mxPoint x="361.3" y="-248.24" as="targetPoint" />
          </mxGeometry>
        </mxCell>
        <mxCell id="jB6_mRZn_5eLLBD233gM-364" value="&lt;b&gt;&lt;font style=&quot;font-size: 18px;&quot;&gt;Downsample Block&lt;/font&gt;&lt;/b&gt;" style="text;html=1;strokeColor=none;fillColor=none;align=center;verticalAlign=middle;whiteSpace=wrap;rounded=0;" vertex="1" parent="1">
          <mxGeometry x="399.3" y="-167.24" width="182" height="30" as="geometry" />
        </mxCell>
        <mxCell id="jB6_mRZn_5eLLBD233gM-365" style="edgeStyle=orthogonalEdgeStyle;rounded=0;orthogonalLoop=1;jettySize=auto;html=1;entryX=0.377;entryY=0.006;entryDx=0;entryDy=0;entryPerimeter=0;" edge="1" parent="1" source="jB6_mRZn_5eLLBD233gM-324" target="jB6_mRZn_5eLLBD233gM-366">
          <mxGeometry relative="1" as="geometry">
            <Array as="points">
              <mxPoint x="39" y="20" />
            </Array>
            <mxPoint x="32" y="25" as="sourcePoint" />
            <mxPoint x="40" y="110" as="targetPoint" />
          </mxGeometry>
        </mxCell>
        <mxCell id="jB6_mRZn_5eLLBD233gM-366" value="&lt;span style=&quot;font-family: &amp;quot;Times New Roman&amp;quot;;&quot;&gt;&lt;font style=&quot;font-size: 22px;&quot;&gt;D&lt;/font&gt;&lt;/span&gt;" style="shape=cube;whiteSpace=wrap;html=1;boundedLbl=1;backgroundOutline=1;darkOpacity=0.05;darkOpacity2=0.1;size=40;direction=east;flipH=1;fillColor=#e1d5e7;strokeColor=#9673a6;" vertex="1" parent="1">
          <mxGeometry x="-30" y="106.13000000000001" width="110" height="113.75" as="geometry" />
        </mxCell>
        <mxCell id="jB6_mRZn_5eLLBD233gM-367" value="" style="shape=cube;whiteSpace=wrap;html=1;boundedLbl=1;backgroundOutline=1;darkOpacity=0.05;darkOpacity2=0.1;size=40;direction=east;flipH=1;fillColor=#ffe6cc;strokeColor=#d79b00;" vertex="1" parent="1">
          <mxGeometry x="376.3" y="-336.23" width="62" height="133.75" as="geometry" />
        </mxCell>
        <mxCell id="jB6_mRZn_5eLLBD233gM-368" value="" style="shape=cube;whiteSpace=wrap;html=1;boundedLbl=1;backgroundOutline=1;darkOpacity=0.05;darkOpacity2=0.1;size=40;direction=east;flipH=1;fillColor=#f8cecc;strokeColor=#b85450;" vertex="1" parent="1">
          <mxGeometry x="407.8" y="-337.24" width="42" height="133.75" as="geometry" />
        </mxCell>
        <mxCell id="jB6_mRZn_5eLLBD233gM-369" value="" style="shape=cube;whiteSpace=wrap;html=1;boundedLbl=1;backgroundOutline=1;darkOpacity=0.05;darkOpacity2=0.1;size=40;direction=east;flipH=1;fillColor=#d5e8d4;strokeColor=#82b366;" vertex="1" parent="1">
          <mxGeometry x="414.8" y="-336.23" width="42" height="133.75" as="geometry" />
        </mxCell>
        <mxCell id="jB6_mRZn_5eLLBD233gM-370" value="" style="endArrow=classic;html=1;rounded=0;exitX=-0.04;exitY=0.66;exitDx=0;exitDy=0;exitPerimeter=0;entryX=1;entryY=0.471;entryDx=0;entryDy=0;entryPerimeter=0;" edge="1" parent="1" source="jB6_mRZn_5eLLBD233gM-369" target="jB6_mRZn_5eLLBD233gM-322">
          <mxGeometry width="50" height="50" relative="1" as="geometry">
            <mxPoint x="511.3" y="-247.24" as="sourcePoint" />
            <mxPoint x="511.3" y="-248.24" as="targetPoint" />
          </mxGeometry>
        </mxCell>
        <mxCell id="jB6_mRZn_5eLLBD233gM-371" value="$$\frac{H}{2} \times \frac{W}{2} \times C \cdot 2$$" style="text;html=1;strokeColor=none;fillColor=none;align=center;verticalAlign=middle;whiteSpace=wrap;rounded=0;fontStyle=1" vertex="1" parent="1">
          <mxGeometry x="466.8" y="-276.36" width="99" height="14" as="geometry" />
        </mxCell>
        <mxCell id="jB6_mRZn_5eLLBD233gM-372" value="$$H \times W \times C$$" style="text;html=1;strokeColor=none;fillColor=none;align=center;verticalAlign=middle;whiteSpace=wrap;rounded=0;fontStyle=1" vertex="1" parent="1">
          <mxGeometry x="262.67" y="-290.36" width="99" height="14" as="geometry" />
        </mxCell>
        <mxCell id="jB6_mRZn_5eLLBD233gM-373" style="edgeStyle=orthogonalEdgeStyle;rounded=0;orthogonalLoop=1;jettySize=auto;html=1;exitX=0.5;exitY=1;exitDx=0;exitDy=0;fontFamily=Helvetica;fontSize=12;fontColor=default;resizable=1;" edge="1" parent="1" source="jB6_mRZn_5eLLBD233gM-340" target="jB6_mRZn_5eLLBD233gM-340">
          <mxGeometry relative="1" as="geometry" />
        </mxCell>
        <mxCell id="jB6_mRZn_5eLLBD233gM-374" style="edgeStyle=orthogonalEdgeStyle;rounded=0;orthogonalLoop=1;jettySize=auto;html=1;entryX=0.336;entryY=0.022;entryDx=0;entryDy=0;entryPerimeter=0;" edge="1" parent="1" target="jB6_mRZn_5eLLBD233gM-375">
          <mxGeometry relative="1" as="geometry">
            <Array as="points">
              <mxPoint x="119" y="166" />
            </Array>
            <mxPoint x="80.49000000000001" y="166" as="sourcePoint" />
            <mxPoint x="120" y="246" as="targetPoint" />
          </mxGeometry>
        </mxCell>
        <mxCell id="jB6_mRZn_5eLLBD233gM-375" value="&lt;span style=&quot;font-family: &amp;quot;Times New Roman&amp;quot;;&quot;&gt;&lt;font style=&quot;font-size: 22px;&quot;&gt;D&lt;/font&gt;&lt;/span&gt;" style="shape=cube;whiteSpace=wrap;html=1;boundedLbl=1;backgroundOutline=1;darkOpacity=0.05;darkOpacity2=0.1;size=40;direction=east;flipH=1;fillColor=#e1d5e7;strokeColor=#9673a6;" vertex="1" parent="1">
          <mxGeometry x="54" y="250" width="98" height="98" as="geometry" />
        </mxCell>
        <mxCell id="jB6_mRZn_5eLLBD233gM-376" style="edgeStyle=orthogonalEdgeStyle;rounded=0;orthogonalLoop=1;jettySize=auto;html=1;entryX=0.286;entryY=0;entryDx=0;entryDy=0;entryPerimeter=0;exitX=0.002;exitY=0.482;exitDx=0;exitDy=0;exitPerimeter=0;" edge="1" parent="1" source="jB6_mRZn_5eLLBD233gM-375" target="jB6_mRZn_5eLLBD233gM-377">
          <mxGeometry relative="1" as="geometry">
            <Array as="points">
              <mxPoint x="180" y="297" />
            </Array>
            <mxPoint x="152" y="303" as="sourcePoint" />
            <mxPoint x="180" y="384" as="targetPoint" />
          </mxGeometry>
        </mxCell>
        <mxCell id="jB6_mRZn_5eLLBD233gM-377" value="&lt;span style=&quot;font-family: &amp;quot;Times New Roman&amp;quot;;&quot;&gt;&lt;font style=&quot;font-size: 22px;&quot;&gt;D&lt;/font&gt;&lt;/span&gt;" style="shape=cube;whiteSpace=wrap;html=1;boundedLbl=1;backgroundOutline=1;darkOpacity=0.05;darkOpacity2=0.1;size=50;direction=east;flipH=1;fillColor=#e1d5e7;strokeColor=#9673a6;" vertex="1" parent="1">
          <mxGeometry x="110" y="390" width="98" height="98" as="geometry" />
        </mxCell>
        <mxCell id="jB6_mRZn_5eLLBD233gM-378" value="&lt;font style=&quot;font-size: 14px;&quot;&gt;$$6 \times 6 \times 128$$&lt;/font&gt;" style="text;html=1;strokeColor=none;fillColor=none;align=center;verticalAlign=middle;whiteSpace=wrap;rounded=0;fontStyle=1" vertex="1" parent="1">
          <mxGeometry x="152" y="278.87" width="99" height="14" as="geometry" />
        </mxCell>
        <mxCell id="jB6_mRZn_5eLLBD233gM-379" style="edgeStyle=orthogonalEdgeStyle;rounded=0;orthogonalLoop=1;jettySize=auto;html=1;entryX=0.192;entryY=0.02;entryDx=0;entryDy=0;entryPerimeter=0;exitX=0.002;exitY=0.404;exitDx=0;exitDy=0;exitPerimeter=0;" edge="1" parent="1" source="jB6_mRZn_5eLLBD233gM-377" target="jB6_mRZn_5eLLBD233gM-380">
          <mxGeometry relative="1" as="geometry">
            <Array as="points">
              <mxPoint x="240" y="430" />
            </Array>
            <mxPoint x="208" y="433" as="sourcePoint" />
            <mxPoint x="240" y="490" as="targetPoint" />
          </mxGeometry>
        </mxCell>
        <mxCell id="jB6_mRZn_5eLLBD233gM-380" value="&lt;span style=&quot;font-family: &amp;quot;Times New Roman&amp;quot;; font-size: 22px;&quot;&gt;D&lt;/span&gt;" style="shape=cube;whiteSpace=wrap;html=1;boundedLbl=1;backgroundOutline=1;darkOpacity=0.05;darkOpacity2=0.1;size=66;direction=east;flipH=1;fillColor=#e1d5e7;strokeColor=#9673a6;" vertex="1" parent="1">
          <mxGeometry x="160.5" y="520" width="98" height="98" as="geometry" />
        </mxCell>
        <mxCell id="jB6_mRZn_5eLLBD233gM-381" value="&lt;font style=&quot;font-size: 14px;&quot;&gt;$$3 \times 3 \times 256$$&lt;/font&gt;" style="text;html=1;strokeColor=none;fillColor=none;align=center;verticalAlign=middle;whiteSpace=wrap;rounded=0;fontStyle=1" vertex="1" parent="1">
          <mxGeometry x="210.75" y="410" width="99" height="14" as="geometry" />
        </mxCell>
        <mxCell id="jB6_mRZn_5eLLBD233gM-382" value="&lt;font style=&quot;font-size: 14px;&quot;&gt;$$12 \times 12 \times 64$$&lt;/font&gt;" style="text;html=1;strokeColor=none;fillColor=none;align=center;verticalAlign=middle;whiteSpace=wrap;rounded=0;fontStyle=1" vertex="1" parent="1">
          <mxGeometry x="82.37" y="147.75" width="99" height="14" as="geometry" />
        </mxCell>
        <mxCell id="jB6_mRZn_5eLLBD233gM-383" style="edgeStyle=orthogonalEdgeStyle;rounded=0;orthogonalLoop=1;jettySize=auto;html=1;exitX=-0.004;exitY=0.657;exitDx=0;exitDy=0;exitPerimeter=0;" edge="1" parent="1" source="jB6_mRZn_5eLLBD233gM-335" target="jB6_mRZn_5eLLBD233gM-324">
          <mxGeometry relative="1" as="geometry">
            <Array as="points">
              <mxPoint x="-160" y="22" />
              <mxPoint x="-160" y="22" />
            </Array>
            <mxPoint x="-164.5" y="91.13" as="sourcePoint" />
            <mxPoint x="-114.5" y="176.13" as="targetPoint" />
          </mxGeometry>
        </mxCell>
        <mxCell id="jB6_mRZn_5eLLBD233gM-384" value="&lt;font face=&quot;Times New Roman&quot; style=&quot;font-size: 22px;&quot;&gt;B&lt;/font&gt;" style="shape=cube;whiteSpace=wrap;html=1;boundedLbl=1;backgroundOutline=1;darkOpacity=0.05;darkOpacity2=0.1;size=60;direction=east;flipH=1;fillColor=#cdeb8b;strokeColor=#36393d;" vertex="1" parent="1">
          <mxGeometry x="269.75" y="526" width="262.5" height="92" as="geometry" />
        </mxCell>
        <mxCell id="jB6_mRZn_5eLLBD233gM-385" style="edgeStyle=orthogonalEdgeStyle;rounded=0;orthogonalLoop=1;jettySize=auto;html=1;exitX=0;exitY=0;exitDx=33;exitDy=65;exitPerimeter=0;" edge="1" parent="1" source="jB6_mRZn_5eLLBD233gM-380">
          <mxGeometry relative="1" as="geometry">
            <Array as="points">
              <mxPoint x="225" y="600" />
              <mxPoint x="270" y="600" />
            </Array>
            <mxPoint x="326.5" y="424" as="sourcePoint" />
            <mxPoint x="270" y="600" as="targetPoint" />
          </mxGeometry>
        </mxCell>
        <mxCell id="jB6_mRZn_5eLLBD233gM-386" value="&lt;font style=&quot;font-size: 22px;&quot;&gt;U&lt;/font&gt;" style="shape=cube;whiteSpace=wrap;html=1;boundedLbl=1;backgroundOutline=1;darkOpacity=0.05;darkOpacity2=0.1;size=66;direction=east;flipH=1;fillColor=#bac8d3;strokeColor=#23445d;" vertex="1" parent="1">
          <mxGeometry x="544.75" y="520" width="98" height="98" as="geometry" />
        </mxCell>
        <mxCell id="jB6_mRZn_5eLLBD233gM-387" style="edgeStyle=orthogonalEdgeStyle;rounded=0;orthogonalLoop=1;jettySize=auto;html=1;exitX=0;exitY=0;exitDx=30;exitDy=62;exitPerimeter=0;" edge="1" parent="1">
          <mxGeometry relative="1" as="geometry">
            <Array as="points">
              <mxPoint x="502" y="602" />
            </Array>
            <mxPoint x="502.25" y="588.0000000000002" as="sourcePoint" />
            <mxPoint x="545" y="602" as="targetPoint" />
          </mxGeometry>
        </mxCell>
        <mxCell id="jB6_mRZn_5eLLBD233gM-388" value="&lt;span style=&quot;font-size: 22px;&quot;&gt;U&lt;/span&gt;" style="shape=cube;whiteSpace=wrap;html=1;boundedLbl=1;backgroundOutline=1;darkOpacity=0.05;darkOpacity2=0.1;size=50;direction=east;flipH=1;fillColor=#bac8d3;strokeColor=#23445d;" vertex="1" parent="1">
          <mxGeometry x="673.75" y="360" width="98" height="98" as="geometry" />
        </mxCell>
        <mxCell id="jB6_mRZn_5eLLBD233gM-389" value="" style="endArrow=classic;html=1;rounded=0;fontFamily=Helvetica;fontSize=12;fontColor=default;resizable=1;entryX=0;entryY=0.5;entryDx=0;entryDy=0;exitX=-0.002;exitY=0.4;exitDx=0;exitDy=0;exitPerimeter=0;" edge="1" parent="1" source="jB6_mRZn_5eLLBD233gM-377" target="jB6_mRZn_5eLLBD233gM-346">
          <mxGeometry width="50" height="50" relative="1" as="geometry">
            <mxPoint x="210" y="430" as="sourcePoint" />
            <mxPoint x="600" y="433" as="targetPoint" />
          </mxGeometry>
        </mxCell>
        <mxCell id="jB6_mRZn_5eLLBD233gM-390" value="" style="endArrow=classic;html=1;rounded=0;fontFamily=Helvetica;fontSize=12;fontColor=default;resizable=1;exitX=0;exitY=0;exitDx=16;exitDy=0;exitPerimeter=0;entryX=0.5;entryY=1;entryDx=0;entryDy=0;" edge="1" parent="1" source="jB6_mRZn_5eLLBD233gM-386" target="jB6_mRZn_5eLLBD233gM-346">
          <mxGeometry width="50" height="50" relative="1" as="geometry">
            <mxPoint x="640" y="420" as="sourcePoint" />
            <mxPoint x="690" y="370" as="targetPoint" />
          </mxGeometry>
        </mxCell>
        <mxCell id="jB6_mRZn_5eLLBD233gM-391" value="&lt;span style=&quot;font-size: 22px;&quot;&gt;U&lt;/span&gt;" style="shape=cube;whiteSpace=wrap;html=1;boundedLbl=1;backgroundOutline=1;darkOpacity=0.05;darkOpacity2=0.1;size=40;direction=east;flipH=1;fillColor=#bac8d3;strokeColor=#23445d;" vertex="1" parent="1">
          <mxGeometry x="790.75" y="229.75" width="98" height="98" as="geometry" />
        </mxCell>
        <mxCell id="jB6_mRZn_5eLLBD233gM-392" value="" style="endArrow=classic;html=1;rounded=0;fontFamily=Helvetica;fontSize=12;fontColor=default;resizable=1;exitX=0;exitY=0;exitDx=16;exitDy=0;exitPerimeter=0;" edge="1" parent="1">
          <mxGeometry width="50" height="50" relative="1" as="geometry">
            <mxPoint x="744.75" y="360" as="sourcePoint" />
            <mxPoint x="744" y="320" as="targetPoint" />
          </mxGeometry>
        </mxCell>
        <mxCell id="jB6_mRZn_5eLLBD233gM-393" value="&lt;font style=&quot;font-size: 20px;&quot;&gt;+&lt;/font&gt;" style="ellipse;whiteSpace=wrap;html=1;aspect=fixed;" vertex="1" parent="1">
          <mxGeometry x="724" y="278.87" width="40.25" height="40.25" as="geometry" />
        </mxCell>
        <mxCell id="jB6_mRZn_5eLLBD233gM-394" value="" style="endArrow=classic;html=1;rounded=0;fontFamily=Helvetica;fontSize=12;fontColor=default;resizable=1;entryX=0;entryY=0.5;entryDx=0;entryDy=0;exitX=-0.006;exitY=0.486;exitDx=0;exitDy=0;exitPerimeter=0;" edge="1" parent="1" source="jB6_mRZn_5eLLBD233gM-375" target="jB6_mRZn_5eLLBD233gM-393">
          <mxGeometry width="50" height="50" relative="1" as="geometry">
            <mxPoint x="150" y="300" as="sourcePoint" />
            <mxPoint x="720" y="300" as="targetPoint" />
          </mxGeometry>
        </mxCell>
        <mxCell id="jB6_mRZn_5eLLBD233gM-395" value="" style="endArrow=classic;html=1;rounded=0;fontFamily=Helvetica;fontSize=12;fontColor=default;resizable=1;exitX=1;exitY=0.5;exitDx=0;exitDy=0;entryX=0;entryY=0;entryDx=98;entryDy=69;entryPerimeter=0;" edge="1" parent="1" source="jB6_mRZn_5eLLBD233gM-393" target="jB6_mRZn_5eLLBD233gM-391">
          <mxGeometry width="50" height="50" relative="1" as="geometry">
            <mxPoint x="733.75" y="260" as="sourcePoint" />
            <mxPoint x="783.75" y="210" as="targetPoint" />
          </mxGeometry>
        </mxCell>
        <mxCell id="jB6_mRZn_5eLLBD233gM-396" value="&lt;span style=&quot;font-size: 22px;&quot;&gt;U&lt;/span&gt;" style="shape=cube;whiteSpace=wrap;html=1;boundedLbl=1;backgroundOutline=1;darkOpacity=0.05;darkOpacity2=0.1;size=40;direction=east;flipH=1;fillColor=#bac8d3;strokeColor=#23445d;" vertex="1" parent="1">
          <mxGeometry x="903.5" y="91.13000000000001" width="110" height="113.75" as="geometry" />
        </mxCell>
        <mxCell id="jB6_mRZn_5eLLBD233gM-397" value="" style="endArrow=classic;html=1;rounded=0;fontFamily=Helvetica;fontSize=12;fontColor=default;resizable=1;exitX=0.001;exitY=0.521;exitDx=0;exitDy=0;exitPerimeter=0;entryX=0;entryY=0.5;entryDx=0;entryDy=0;" edge="1" parent="1" source="jB6_mRZn_5eLLBD233gM-366" target="jB6_mRZn_5eLLBD233gM-398">
          <mxGeometry width="50" height="50" relative="1" as="geometry">
            <mxPoint x="460" y="240" as="sourcePoint" />
            <mxPoint x="830" y="170" as="targetPoint" />
          </mxGeometry>
        </mxCell>
        <mxCell id="jB6_mRZn_5eLLBD233gM-398" value="&lt;font style=&quot;font-size: 20px;&quot;&gt;+&lt;/font&gt;" style="ellipse;whiteSpace=wrap;html=1;aspect=fixed;" vertex="1" parent="1">
          <mxGeometry x="836.75" y="149.75" width="40.25" height="40.25" as="geometry" />
        </mxCell>
        <mxCell id="jB6_mRZn_5eLLBD233gM-399" value="" style="endArrow=classic;html=1;rounded=0;fontFamily=Helvetica;fontSize=12;fontColor=default;resizable=1;exitX=0;exitY=0;exitDx=16;exitDy=0;exitPerimeter=0;" edge="1" parent="1">
          <mxGeometry width="50" height="50" relative="1" as="geometry">
            <mxPoint x="857.25" y="229.75" as="sourcePoint" />
            <mxPoint x="856.5" y="189.75" as="targetPoint" />
          </mxGeometry>
        </mxCell>
        <mxCell id="jB6_mRZn_5eLLBD233gM-400" value="" style="endArrow=classic;html=1;rounded=0;fontFamily=Helvetica;fontSize=12;fontColor=default;resizable=1;exitX=1;exitY=0.5;exitDx=0;exitDy=0;entryX=0;entryY=0;entryDx=98;entryDy=69;entryPerimeter=0;" edge="1" parent="1">
          <mxGeometry width="50" height="50" relative="1" as="geometry">
            <mxPoint x="877" y="169.53" as="sourcePoint" />
            <mxPoint x="904" y="169.53" as="targetPoint" />
          </mxGeometry>
        </mxCell>
        <mxCell id="jB6_mRZn_5eLLBD233gM-401" value="" style="endArrow=classic;html=1;rounded=0;fontFamily=Helvetica;fontSize=12;fontColor=default;resizable=1;exitX=0.007;exitY=0.644;exitDx=0;exitDy=0;exitPerimeter=0;entryX=0;entryY=0.5;entryDx=0;entryDy=0;" edge="1" parent="1" source="jB6_mRZn_5eLLBD233gM-324" target="jB6_mRZn_5eLLBD233gM-348">
          <mxGeometry width="50" height="50" relative="1" as="geometry">
            <mxPoint x="220" y="20" as="sourcePoint" />
            <mxPoint x="880" y="20" as="targetPoint" />
          </mxGeometry>
        </mxCell>
        <mxCell id="jB6_mRZn_5eLLBD233gM-402" value="&lt;font style=&quot;font-size: 14px;&quot;&gt;$$3 \times 3 \times 256$$&lt;/font&gt;" style="text;html=1;strokeColor=none;fillColor=none;align=center;verticalAlign=middle;whiteSpace=wrap;rounded=0;fontStyle=1" vertex="1" parent="1">
          <mxGeometry x="510" y="470" width="99" height="14" as="geometry" />
        </mxCell>
        <mxCell id="jB6_mRZn_5eLLBD233gM-403" value="&lt;font style=&quot;font-size: 14px;&quot;&gt;$$6 \times 6 \times 128$$&lt;/font&gt;" style="text;html=1;strokeColor=none;fillColor=none;align=center;verticalAlign=middle;whiteSpace=wrap;rounded=0;fontStyle=1" vertex="1" parent="1">
          <mxGeometry x="640" y="334" width="99" height="14" as="geometry" />
        </mxCell>
        <mxCell id="jB6_mRZn_5eLLBD233gM-404" value="" style="endArrow=classic;html=1;rounded=0;fontFamily=Helvetica;fontSize=12;fontColor=default;resizable=1;exitX=0;exitY=0;exitDx=16;exitDy=0;exitPerimeter=0;entryX=0.5;entryY=1;entryDx=0;entryDy=0;" edge="1" parent="1" target="jB6_mRZn_5eLLBD233gM-348">
          <mxGeometry width="50" height="50" relative="1" as="geometry">
            <mxPoint x="977.38" y="91.13" as="sourcePoint" />
            <mxPoint x="976.63" y="51.129999999999995" as="targetPoint" />
          </mxGeometry>
        </mxCell>
        <mxCell id="jB6_mRZn_5eLLBD233gM-405" value="&lt;font style=&quot;font-size: 14px;&quot;&gt;$$12 \times 12 \times 64$$&lt;/font&gt;" style="text;html=1;strokeColor=none;fillColor=none;align=center;verticalAlign=middle;whiteSpace=wrap;rounded=0;fontStyle=1" vertex="1" parent="1">
          <mxGeometry x="740" y="204.88" width="99" height="14" as="geometry" />
        </mxCell>
        <mxCell id="jB6_mRZn_5eLLBD233gM-406" value="&lt;font style=&quot;font-size: 14px;&quot;&gt;$$24 \times 24 \times 32$$&lt;/font&gt;" style="text;html=1;strokeColor=none;fillColor=none;align=center;verticalAlign=middle;whiteSpace=wrap;rounded=0;fontStyle=1" vertex="1" parent="1">
          <mxGeometry x="860" y="63.13" width="99" height="14" as="geometry" />
        </mxCell>
        <mxCell id="jB6_mRZn_5eLLBD233gM-407" value="&lt;span style=&quot;font-size: 22px;&quot;&gt;U&lt;/span&gt;" style="shape=cube;whiteSpace=wrap;html=1;boundedLbl=1;backgroundOutline=1;darkOpacity=0.05;darkOpacity2=0.1;size=36;direction=east;flipH=1;fillColor=#bac8d3;strokeColor=#23445d;" vertex="1" parent="1">
          <mxGeometry x="1050" y="-67.82" width="136" height="138.12" as="geometry" />
        </mxCell>
        <mxCell id="jB6_mRZn_5eLLBD233gM-408" value="" style="shape=cube;whiteSpace=wrap;html=1;boundedLbl=1;backgroundOutline=1;darkOpacity=0.05;darkOpacity2=0.1;size=40;direction=east;flipH=1;fillColor=#f5f5f5;strokeColor=#666666;fontColor=#333333;" vertex="1" parent="1">
          <mxGeometry x="1220" y="-70.06" width="64" height="138.12" as="geometry" />
        </mxCell>
        <mxCell id="jB6_mRZn_5eLLBD233gM-409" value="" style="endArrow=classic;html=1;rounded=0;fontFamily=Helvetica;fontSize=12;fontColor=default;resizable=1;entryX=0;entryY=0;entryDx=64;entryDy=89.06;entryPerimeter=0;exitX=-0.001;exitY=0.633;exitDx=0;exitDy=0;exitPerimeter=0;" edge="1" parent="1" source="jB6_mRZn_5eLLBD233gM-407" target="jB6_mRZn_5eLLBD233gM-408">
          <mxGeometry width="50" height="50" relative="1" as="geometry">
            <mxPoint x="1170" y="120" as="sourcePoint" />
            <mxPoint x="1220" y="70" as="targetPoint" />
          </mxGeometry>
        </mxCell>
        <mxCell id="jB6_mRZn_5eLLBD233gM-410" value="$$48 \times 48 \times 16$$" style="text;html=1;strokeColor=none;fillColor=none;align=center;verticalAlign=middle;whiteSpace=wrap;rounded=0;fontStyle=1" vertex="1" parent="1">
          <mxGeometry x="1185" y="77.13" width="99" height="14" as="geometry" />
        </mxCell>
        <mxCell id="jB6_mRZn_5eLLBD233gM-411" value="&lt;b&gt;&lt;font style=&quot;font-size: 18px;&quot; face=&quot;Times New Roman&quot;&gt;output&lt;/font&gt;&lt;/b&gt;" style="text;html=1;strokeColor=none;fillColor=none;align=center;verticalAlign=middle;whiteSpace=wrap;rounded=0;" vertex="1" parent="1">
          <mxGeometry x="1210" y="-111" width="110" height="30" as="geometry" />
        </mxCell>
        <mxCell id="jB6_mRZn_5eLLBD233gM-412" style="edgeStyle=orthogonalEdgeStyle;rounded=0;orthogonalLoop=1;jettySize=auto;html=1;exitX=0.5;exitY=1;exitDx=0;exitDy=0;fontFamily=Helvetica;fontSize=12;fontColor=default;resizable=1;" edge="1" parent="1" source="jB6_mRZn_5eLLBD233gM-323" target="jB6_mRZn_5eLLBD233gM-323">
          <mxGeometry relative="1" as="geometry" />
        </mxCell>
        <mxCell id="jB6_mRZn_5eLLBD233gM-413" value="" style="shape=cube;whiteSpace=wrap;html=1;boundedLbl=1;backgroundOutline=1;darkOpacity=0.05;darkOpacity2=0.1;size=40;direction=east;flipH=1;fillColor=#ffe6cc;strokeColor=#d79b00;" vertex="1" parent="1">
          <mxGeometry x="914" y="-336.24" width="62" height="133.75" as="geometry" />
        </mxCell>
        <mxCell id="jB6_mRZn_5eLLBD233gM-414" value="$$H \times W \times C$$" style="text;html=1;strokeColor=none;fillColor=none;align=center;verticalAlign=middle;whiteSpace=wrap;rounded=0;fontStyle=1" vertex="1" parent="1">
          <mxGeometry x="625.3" y="-267.24" width="99" height="14" as="geometry" />
        </mxCell>
        <mxCell id="jB6_mRZn_5eLLBD233gM-415" value="" style="shape=cube;whiteSpace=wrap;html=1;boundedLbl=1;backgroundOutline=1;darkOpacity=0.05;darkOpacity2=0.1;size=40;direction=east;flipH=1;fillColor=#f8cecc;strokeColor=#b85450;" vertex="1" parent="1">
          <mxGeometry x="943.75" y="-336.23" width="42" height="133.75" as="geometry" />
        </mxCell>
        <mxCell id="jB6_mRZn_5eLLBD233gM-416" value="" style="shape=cube;whiteSpace=wrap;html=1;boundedLbl=1;backgroundOutline=1;darkOpacity=0.05;darkOpacity2=0.1;size=40;direction=east;flipH=1;fillColor=#d5e8d4;strokeColor=#82b366;" vertex="1" parent="1">
          <mxGeometry x="953.25" y="-336.23" width="42" height="133.75" as="geometry" />
        </mxCell>
        <mxCell id="jB6_mRZn_5eLLBD233gM-417" value="" style="shape=cube;whiteSpace=wrap;html=1;boundedLbl=1;backgroundOutline=1;darkOpacity=0.05;darkOpacity2=0.1;size=40;direction=east;flipH=1;fillColor=#ffe6cc;strokeColor=#d79b00;" vertex="1" parent="1">
          <mxGeometry x="985.75" y="-336.24" width="62" height="133.75" as="geometry" />
        </mxCell>
        <mxCell id="jB6_mRZn_5eLLBD233gM-418" value="" style="shape=cube;whiteSpace=wrap;html=1;boundedLbl=1;backgroundOutline=1;darkOpacity=0.05;darkOpacity2=0.1;size=40;direction=east;flipH=1;fillColor=#f8cecc;strokeColor=#b85450;" vertex="1" parent="1">
          <mxGeometry x="1019" y="-336.24" width="42" height="133.75" as="geometry" />
        </mxCell>
        <mxCell id="jB6_mRZn_5eLLBD233gM-419" value="" style="shape=cube;whiteSpace=wrap;html=1;boundedLbl=1;backgroundOutline=1;darkOpacity=0.05;darkOpacity2=0.1;size=40;direction=east;flipH=1;fillColor=#d5e8d4;strokeColor=#82b366;" vertex="1" parent="1">
          <mxGeometry x="1029" y="-336.24" width="42" height="133.75" as="geometry" />
        </mxCell>
        <mxCell id="jB6_mRZn_5eLLBD233gM-420" value="" style="shape=cube;whiteSpace=wrap;html=1;boundedLbl=1;backgroundOutline=1;darkOpacity=0.05;darkOpacity2=0.1;size=40;direction=east;flipH=1;fillColor=#dae8fc;strokeColor=#6c8ebf;" vertex="1" parent="1">
          <mxGeometry x="1037.75" y="-336.24" width="42" height="133.75" as="geometry" />
        </mxCell>
        <mxCell id="jB6_mRZn_5eLLBD233gM-421" value="" style="endArrow=classic;html=1;rounded=0;exitX=-0.002;exitY=0.476;exitDx=0;exitDy=0;exitPerimeter=0;" edge="1" parent="1" source="jB6_mRZn_5eLLBD233gM-321">
          <mxGeometry width="50" height="50" relative="1" as="geometry">
            <mxPoint x="681.3" y="-247.24" as="sourcePoint" />
            <mxPoint x="720" y="-247.24" as="targetPoint" />
          </mxGeometry>
        </mxCell>
        <mxCell id="jB6_mRZn_5eLLBD233gM-422" value="&lt;font style=&quot;font-size: 20px;&quot;&gt;+&lt;/font&gt;" style="ellipse;whiteSpace=wrap;html=1;aspect=fixed;" vertex="1" parent="1">
          <mxGeometry x="1103.25" y="-273.24" width="40.25" height="40.25" as="geometry" />
        </mxCell>
        <mxCell id="jB6_mRZn_5eLLBD233gM-423" value="" style="endArrow=classic;html=1;rounded=0;entryX=0.5;entryY=1;entryDx=0;entryDy=0;" edge="1" parent="1" target="jB6_mRZn_5eLLBD233gM-422">
          <mxGeometry width="50" height="50" relative="1" as="geometry">
            <mxPoint x="810" y="-253.24" as="sourcePoint" />
            <mxPoint x="1041.3" y="-167.24" as="targetPoint" />
            <Array as="points">
              <mxPoint x="850" y="-253.24" />
              <mxPoint x="850" y="-207.24" />
              <mxPoint x="850" y="-167.24" />
              <mxPoint x="1001.3" y="-167.24" />
              <mxPoint x="1123" y="-167.24" />
            </Array>
          </mxGeometry>
        </mxCell>
        <mxCell id="jB6_mRZn_5eLLBD233gM-424" value="&lt;b&gt;&lt;font style=&quot;font-size: 18px;&quot;&gt;Upsample Block&lt;/font&gt;&lt;/b&gt;" style="text;html=1;strokeColor=none;fillColor=none;align=center;verticalAlign=middle;whiteSpace=wrap;rounded=0;" vertex="1" parent="1">
          <mxGeometry x="1089.3" y="-167.24" width="182" height="30" as="geometry" />
        </mxCell>
        <mxCell id="jB6_mRZn_5eLLBD233gM-425" value="" style="shape=cube;whiteSpace=wrap;html=1;boundedLbl=1;backgroundOutline=1;darkOpacity=0.05;darkOpacity2=0.1;size=40;direction=east;flipH=1;fillColor=#b0e3e6;strokeColor=#0e8088;" vertex="1" parent="1">
          <mxGeometry x="724.63" y="-336.24" width="62" height="133.75" as="geometry" />
        </mxCell>
        <mxCell id="jB6_mRZn_5eLLBD233gM-426" value="" style="shape=cube;whiteSpace=wrap;html=1;boundedLbl=1;backgroundOutline=1;darkOpacity=0.05;darkOpacity2=0.1;size=40;direction=east;flipH=1;fillColor=#f8cecc;strokeColor=#b85450;" vertex="1" parent="1">
          <mxGeometry x="753.75" y="-336.23" width="42" height="133.75" as="geometry" />
        </mxCell>
        <mxCell id="jB6_mRZn_5eLLBD233gM-427" value="" style="shape=cube;whiteSpace=wrap;html=1;boundedLbl=1;backgroundOutline=1;darkOpacity=0.05;darkOpacity2=0.1;size=40;direction=east;flipH=1;fillColor=#d5e8d4;strokeColor=#82b366;" vertex="1" parent="1">
          <mxGeometry x="762.5" y="-335.22" width="42" height="133.75" as="geometry" />
        </mxCell>
        <mxCell id="jB6_mRZn_5eLLBD233gM-428" value="$$\frac{H}{2} \times \frac{W}{2} \times C \cdot 2$$" style="text;html=1;strokeColor=none;fillColor=none;align=center;verticalAlign=middle;whiteSpace=wrap;rounded=0;fontStyle=1" vertex="1" parent="1">
          <mxGeometry x="1156.8" y="-287.24" width="99" height="14" as="geometry" />
        </mxCell>
        <mxCell id="jB6_mRZn_5eLLBD233gM-429" value="" style="endArrow=classic;html=1;rounded=0;fontFamily=Helvetica;fontSize=12;fontColor=default;resizable=1;exitX=0.045;exitY=0.612;exitDx=0;exitDy=0;exitPerimeter=0;entryX=1.017;entryY=0.62;entryDx=0;entryDy=0;entryPerimeter=0;" edge="1" parent="1" source="jB6_mRZn_5eLLBD233gM-427" target="jB6_mRZn_5eLLBD233gM-413">
          <mxGeometry width="50" height="50" relative="1" as="geometry">
            <mxPoint x="820" y="-257.24" as="sourcePoint" />
            <mxPoint x="900" y="-254.24" as="targetPoint" />
          </mxGeometry>
        </mxCell>
        <mxCell id="jB6_mRZn_5eLLBD233gM-430" value="" style="endArrow=classic;html=1;rounded=0;fontFamily=Helvetica;fontSize=12;fontColor=default;resizable=1;" edge="1" parent="1">
          <mxGeometry width="50" height="50" relative="1" as="geometry">
            <mxPoint x="1080" y="-253.24" as="sourcePoint" />
            <mxPoint x="1103.5" y="-253.24" as="targetPoint" />
          </mxGeometry>
        </mxCell>
        <mxCell id="jB6_mRZn_5eLLBD233gM-431" value="" style="endArrow=classic;html=1;rounded=0;fontFamily=Helvetica;fontSize=12;fontColor=default;resizable=1;exitX=1;exitY=0.5;exitDx=0;exitDy=0;" edge="1" parent="1" source="jB6_mRZn_5eLLBD233gM-422">
          <mxGeometry width="50" height="50" relative="1" as="geometry">
            <mxPoint x="900" y="-137.24" as="sourcePoint" />
            <mxPoint x="1270" y="-253.24" as="targetPoint" />
          </mxGeometry>
        </mxCell>
        <mxCell id="jB6_mRZn_5eLLBD233gM-432" value="$$\frac{H}{2} \times \frac{W}{2} \times C \cdot 2$$" style="text;html=1;strokeColor=none;fillColor=none;align=center;verticalAlign=middle;whiteSpace=wrap;rounded=0;fontStyle=1" vertex="1" parent="1">
          <mxGeometry x="810" y="-281.24" width="99" height="14" as="geometry" />
        </mxCell>
        <mxCell id="jB6_mRZn_5eLLBD233gM-433" value="" style="shape=cube;whiteSpace=wrap;html=1;boundedLbl=1;backgroundOutline=1;darkOpacity=0.05;darkOpacity2=0.1;size=7;direction=east;flipH=1;fillColor=#d5e8d4;strokeColor=#82b366;" vertex="1" parent="1">
          <mxGeometry x="974.12" y="434.81" width="12.75" height="50" as="geometry" />
        </mxCell>
        <mxCell id="jB6_mRZn_5eLLBD233gM-434" value="" style="shape=cube;whiteSpace=wrap;html=1;boundedLbl=1;backgroundOutline=1;darkOpacity=0.05;darkOpacity2=0.1;size=7;direction=east;flipH=1;fillColor=#dae8fc;strokeColor=#6c8ebf;" vertex="1" parent="1">
          <mxGeometry x="974.12" y="502.81" width="12.75" height="50" as="geometry" />
        </mxCell>
        <mxCell id="jB6_mRZn_5eLLBD233gM-435" value="" style="shape=cube;whiteSpace=wrap;html=1;boundedLbl=1;backgroundOutline=1;darkOpacity=0.05;darkOpacity2=0.1;size=7;direction=east;flipH=1;fillColor=#cdeb8b;strokeColor=#36393d;" vertex="1" parent="1">
          <mxGeometry x="953.25" y="574.81" width="54.5" height="56.81" as="geometry" />
        </mxCell>
        <mxCell id="jB6_mRZn_5eLLBD233gM-436" value="&lt;font style=&quot;font-size: 20px;&quot; face=&quot;Times New Roman&quot;&gt;Bottleneck&lt;/font&gt;" style="text;html=1;strokeColor=none;fillColor=none;align=left;verticalAlign=middle;whiteSpace=wrap;rounded=0;fontStyle=1" vertex="1" parent="1">
          <mxGeometry x="1027.12" y="591.28" width="231" height="23.88" as="geometry" />
        </mxCell>
        <mxCell id="jB6_mRZn_5eLLBD233gM-437" value="" style="shape=cube;whiteSpace=wrap;html=1;boundedLbl=1;backgroundOutline=1;darkOpacity=0.05;darkOpacity2=0.1;size=7;direction=east;flipH=1;fillColor=#b0e3e6;strokeColor=#0e8088;" vertex="1" parent="1">
          <mxGeometry x="959" y="219.88" width="54.5" height="56.81" as="geometry" />
        </mxCell>
        <mxCell id="jB6_mRZn_5eLLBD233gM-438" value="&lt;font style=&quot;font-size: 20px;&quot; face=&quot;Times New Roman&quot;&gt;3x3 Transpose Convolutional Layer&lt;br&gt;&lt;/font&gt;&lt;div style=&quot;font-size: 20px;&quot;&gt;&lt;span style=&quot;background-color: initial;&quot;&gt;&lt;font style=&quot;font-size: 20px;&quot; face=&quot;IbPW0YMXV3z1HiOhMc-I&quot;&gt;with spectral norm&lt;/font&gt;&lt;/span&gt;&lt;/div&gt;" style="text;html=1;strokeColor=none;fillColor=none;align=left;verticalAlign=middle;whiteSpace=wrap;rounded=0;fontStyle=1" vertex="1" parent="1">
          <mxGeometry x="1029" y="236.35" width="311" height="23.88" as="geometry" />
        </mxCell>
      </root>
    </mxGraphModel>
  </diagram>
</mxfile>
